# xmcd CD database file
#
# Track frame offsets:
#	150
#	9700
#	22437
#	38870
#	52912
#	69837
#	83257
#	97702
#	115087
#	128710
#	151570
#	166600
#	183492
#	199292
#	214855
#	227645
#	243897
#	255390
#	277190
#
# Disc length: 3981 seconds
#
# Revision: 2
# Processed by: cddbd v1.5.2PL0 Copyright (c) Steve Scherf et al.
# Submitted via: CDex 1.70beta2
#
DISCID=ea0f8b13
DTITLE=Various Artist - Toe The Line 2 - The Next Step [CD2]
DYEAR=1997
DGENRE=Country
TTITLE0=Marty Stuart - Don't Be Cruel
TTITLE1=George Strait - Lovebug
TTITLE2=Rodney Crowell - Rose Of Memphis
TTITLE3=McBride and The Ride - Love On The Loose, Heart On The Run
TTITLE4=Tracy BGyrd - Holdin' Heaven (Dance Mix)
TTITLE5=Vince Gill - One Dance With You
TTITLE6=Marty Stuart - Tempted
TTITLE7=Dave Sheriff - Strut Your Stuff
TTITLE8=Trisha Yearwood - If I Ain't Got You
TTITLE9=Mavericks - Children
TTITLE10=Mark Collie - Hard Lovin' Woman
TTITLE11=Vince Gill - You Better Think Twice
TTITLE12=Scooter Lee - Honky Tonk Twist
TTITLE13=Rhett Akins - What They're Talking About
TTITLE14=Mark Chesnutt - Blame It On Texas
TTITLE15=Steve Earle - Hillbilly Highway
TTITLE16=Roger Brown and Swing City - Western Women
TTITLE17=Tracy Byrd - Big Love (Master Edit)
TTITLE18=Osborne Brothers - Rocky Top (Championship Mix)
EXTD=YEAR: 1997
EXTT0=
EXTT1=
EXTT2=
EXTT3=
EXTT4=
EXTT5=
EXTT6=
EXTT7=
EXTT8=
EXTT9=
EXTT10=
EXTT11=
EXTT12=
EXTT13=
EXTT14=
EXTT15=
EXTT16=
EXTT17=
EXTT18=
PLAYORDER=
